<svg width="21" height="21" viewBox="0 0 21 21" fill="none" xmlns="http://www.w3.org/2000/svg">
<path d="M1.5 9.56505C1.5 8.9907 1.5 8.70352 1.57403 8.43905C1.6396 8.20478 1.74737 7.98444 1.89203 7.78886C2.05534 7.56806 2.28202 7.39175 2.73539 7.03912L9.5177 1.764C9.86902 1.49075 10.0447 1.35412 10.2387 1.3016C10.4098 1.25526 10.5902 1.25526 10.7613 1.3016C10.9553 1.35412 11.131 1.49075 11.4823 1.764L18.2646 7.03913C18.718 7.39175 18.9447 7.56806 19.108 7.78886C19.2526 7.98444 19.3604 8.20478 19.426 8.43905C19.5 8.70352 19.5 8.9907 19.5 9.56505V16.8C19.5 17.9201 19.5 18.4801 19.282 18.908C19.0903 19.2843 18.7843 19.5903 18.408 19.782C17.9802 20 17.4201 20 16.3 20H4.7C3.57989 20 3.01984 20 2.59202 19.782C2.21569 19.5903 1.90973 19.2843 1.71799 18.908C1.5 18.4801 1.5 17.9201 1.5 16.8V9.56505Z" stroke="#1C222B" stroke-width="2" stroke-linecap="round" stroke-linejoin="round"/>
</svg>
