<svg width="19" height="22" viewBox="0 0 19 22" fill="none" xmlns="http://www.w3.org/2000/svg">
<path d="M11.3909 17.0149C11.8198 18.6153 10.87 20.2603 9.26961 20.6891C7.66921 21.118 6.0242 20.1682 5.59537 18.5678M7.89146 4.74097C8.19567 4.19367 8.29588 3.53217 8.12101 2.87958C7.76366 1.54591 6.39282 0.754456 5.05915 1.11181C3.72549 1.46917 2.93403 2.84001 3.29138 4.17367C3.46625 4.82627 3.88378 5.34904 4.42088 5.67091M13.2358 8.44541C12.8789 7.11328 11.926 5.99932 10.5867 5.34859C9.24742 4.69785 7.6315 4.56366 6.09443 4.97551C4.55735 5.38737 3.22502 6.31155 2.39054 7.54474C1.55606 8.77793 1.28779 10.2191 1.64473 11.5512C2.2353 13.7553 2.12063 15.5137 1.74768 16.8498C1.32261 18.3727 1.11008 19.1341 1.16749 19.287C1.23318 19.4619 1.2807 19.5099 1.45494 19.5774C1.60723 19.6364 2.247 19.465 3.52654 19.1222L15.3916 15.9429C16.6711 15.6001 17.3109 15.4287 17.4133 15.3014C17.5304 15.1558 17.5476 15.0905 17.517 14.9062C17.4903 14.745 16.9255 14.1919 15.796 13.0856C14.8049 12.1149 13.8264 10.6495 13.2358 8.44541Z" stroke="#1C222B" stroke-width="2" stroke-linecap="round" stroke-linejoin="round"/>
</svg>
