<svg width="22" height="22" viewBox="0 0 22 22" fill="none" xmlns="http://www.w3.org/2000/svg">
<path d="M18.75 6.27774L10.25 11M10.25 11L1.74997 6.27774M10.25 11L10.25 20.5M12.25 19.8889L11.027 20.5683C10.7434 20.7259 10.6016 20.8046 10.4515 20.8355C10.3185 20.8629 10.1815 20.8629 10.0486 20.8355C9.89838 20.8046 9.75658 20.7259 9.47297 20.5683L2.07297 16.4572C1.77346 16.2908 1.62368 16.2076 1.51463 16.0893C1.41816 15.9846 1.34515 15.8605 1.30048 15.7253C1.25 15.5725 1.25 15.4012 1.25 15.0585V6.94144C1.25 6.5988 1.25 6.42748 1.30048 6.27468C1.34515 6.1395 1.41816 6.01542 1.51463 5.91073C1.62368 5.79239 1.77345 5.70919 2.07297 5.54279L9.47297 1.43168C9.75657 1.27412 9.89838 1.19534 10.0486 1.16445C10.1815 1.13712 10.3185 1.13712 10.4515 1.16445C10.6016 1.19534 10.7434 1.27412 11.027 1.43168L18.427 5.54279C18.7266 5.70919 18.8763 5.79239 18.9854 5.91073C19.0818 6.01542 19.1549 6.1395 19.1995 6.27468C19.25 6.42747 19.25 6.5988 19.25 6.94144L19.25 11.5M5.75 3.49999L14.75 8.49999M17.25 20V14M14.25 17H20.25" stroke="white" stroke-width="2" stroke-linecap="round" stroke-linejoin="round"/>
</svg>
