<svg width="16" height="18" viewBox="0 0 16 18" fill="none" xmlns="http://www.w3.org/2000/svg">
<path d="M15.0833 5.06478L7.99997 8.99996M7.99997 8.99996L0.916639 5.06478M7.99997 8.99996L8 16.9167M15.5 12.3821V5.61786C15.5 5.33232 15.5 5.18956 15.4579 5.06222C15.4207 4.94958 15.3599 4.84618 15.2795 4.75893C15.1886 4.66032 15.0638 4.59099 14.8142 4.45232L8.64753 1.02639C8.41119 0.895093 8.29302 0.829443 8.16788 0.803706C8.05712 0.780926 7.94288 0.780926 7.83213 0.803706C7.70698 0.829443 7.58881 0.895093 7.35248 1.02639L1.18581 4.45232C0.936206 4.59099 0.811404 4.66032 0.720528 4.75894C0.640131 4.84618 0.579289 4.94958 0.542071 5.06223C0.5 5.18956 0.5 5.33233 0.5 5.61786V12.3821C0.5 12.6677 0.5 12.8104 0.542071 12.9378C0.579289 13.0504 0.640131 13.1538 0.720528 13.241C0.811405 13.3397 0.936206 13.409 1.18581 13.5477L7.35248 16.9736C7.58881 17.1049 7.70698 17.1705 7.83213 17.1963C7.94288 17.219 8.05712 17.219 8.16788 17.1963C8.29302 17.1705 8.41119 17.1049 8.64753 16.9736L14.8142 13.5477C15.0638 13.409 15.1886 13.3397 15.2795 13.241C15.3599 13.1538 15.4207 13.0504 15.4579 12.9378C15.5 12.8104 15.5 12.6677 15.5 12.3821Z" stroke="#51637B" stroke-linecap="round" stroke-linejoin="round"/>
</svg>
